<svg width="80" height="22" viewBox="0 0 80 22" fill="none" xmlns="http://www.w3.org/2000/svg">
<path d="M35.4451 6.7017C34.7688 6.7017 34.2492 6.13513 33.8159 5.61579C33.7039 5.48149 33.5712 5.3605 33.4178 5.25284C32.9301 4.9072 32.2956 4.73438 31.5144 4.73438C30.9651 4.73438 30.494 4.81723 30.101 4.98295C29.708 5.14867 29.4074 5.37358 29.199 5.65767C28.9907 5.94176 28.8842 6.2661 28.8794 6.63068C28.8794 6.93371 28.9481 7.1965 29.0854 7.41903C29.2275 7.64157 29.4192 7.83097 29.6607 7.98722C29.9022 8.13873 30.1697 8.26657 30.4633 8.37074C30.7568 8.47491 31.0527 8.5625 31.351 8.63352L32.7147 8.97443C33.2639 9.10227 33.7919 9.27509 34.2985 9.4929C34.8098 9.7107 35.2668 9.98532 35.6692 10.3168C36.0764 10.6482 36.3984 11.0483 36.6351 11.517C36.8719 11.9858 36.9902 12.535 36.9902 13.1648C36.9902 14.017 36.7724 14.7675 36.3368 15.4162C35.9012 16.0601 35.2715 16.5644 34.4476 16.929C33.6285 17.2888 32.6365 17.4688 31.4718 17.4688C30.3401 17.4688 29.3577 17.2936 28.5243 16.9432C27.6957 16.5928 27.0471 16.0814 26.5783 15.4091C26.3481 15.0755 26.1703 14.7058 26.045 14.3C25.8244 13.5856 26.4476 12.9517 27.1954 12.9517C27.8848 12.9517 28.4035 13.5325 28.7976 14.0981C28.8257 14.1385 28.8554 14.1777 28.8865 14.2159C29.1612 14.5521 29.5186 14.803 29.959 14.9688C30.4041 15.1345 30.9012 15.2173 31.4505 15.2173C32.0234 15.2173 32.5253 15.1321 32.9561 14.9616C33.3918 14.7865 33.7327 14.545 33.9789 14.2372C34.2251 13.9247 34.3506 13.5601 34.3553 13.1435C34.3506 12.7647 34.2393 12.4522 34.0215 12.206C33.8037 11.955 33.4983 11.7467 33.1053 11.581C32.717 11.4105 32.2625 11.259 31.7417 11.1264L30.0868 10.7003C28.8889 10.3925 27.9419 9.92614 27.2459 9.30114C26.5546 8.6714 26.209 7.8357 26.209 6.79403C26.209 5.93703 26.441 5.18655 26.905 4.54261C27.3738 3.89867 28.0106 3.39915 28.8155 3.04403C29.6204 2.68419 30.5319 2.50426 31.5499 2.50426C32.5821 2.50426 33.4865 2.68419 34.263 3.04403C35.0442 3.39915 35.6574 3.89394 36.1025 4.52841C36.2917 4.79618 36.442 5.08108 36.5534 5.3831C36.8092 6.07715 36.1848 6.7017 35.4451 6.7017Z" fill="white"/>
<path d="M41.1649 17.4688C40.4736 17.4688 39.851 17.3456 39.297 17.0994C38.7477 16.8485 38.3121 16.4792 37.9902 15.9915C37.6729 15.5038 37.5143 14.9025 37.5143 14.1875C37.5143 13.572 37.628 13.063 37.8552 12.6605C38.0825 12.2581 38.3926 11.9361 38.7856 11.6946C39.1786 11.4531 39.6213 11.2708 40.1137 11.1477C40.6109 11.0199 41.1246 10.9276 41.6549 10.8707C42.2941 10.8045 42.8126 10.7453 43.2103 10.6932C43.6081 10.6364 43.8969 10.5511 44.0768 10.4375C44.2615 10.3191 44.3538 10.1368 44.3538 9.89062V9.84801C44.3538 9.31297 44.1952 8.89867 43.878 8.60511C43.5607 8.31155 43.1038 8.16477 42.5072 8.16477C41.8775 8.16477 41.378 8.30208 41.0086 8.5767C40.9475 8.62279 40.8896 8.67027 40.8351 8.71916C40.3963 9.11266 39.8478 9.48976 39.2643 9.40689C38.5269 9.30217 38.0345 8.54605 38.4721 7.9434C38.5742 7.8028 38.6858 7.67063 38.8069 7.54688C39.2425 7.09706 39.7752 6.76089 40.4049 6.53835C41.0347 6.31108 41.7307 6.19744 42.493 6.19744C43.0186 6.19744 43.5418 6.259 44.0626 6.3821C44.5834 6.50521 45.0593 6.70881 45.4902 6.9929C45.921 7.27225 46.2667 7.65341 46.5271 8.13636C46.7923 8.61932 46.9248 9.22301 46.9248 9.94744V16.0128C46.9248 16.6953 46.3715 17.2486 45.689 17.2486H45.2025C44.7887 17.2486 44.4532 16.9131 44.4532 16.4993V15.803C44.4532 15.7737 44.4295 15.75 44.4003 15.75C44.3805 15.75 44.3623 15.7611 44.353 15.7786C44.1978 16.0709 43.9826 16.3455 43.7075 16.6023C43.4281 16.8627 43.0754 17.0734 42.6493 17.2344C42.2279 17.3906 41.7331 17.4688 41.1649 17.4688ZM41.8325 15.5795C42.3486 15.5795 42.796 15.4777 43.1748 15.2741C43.5536 15.0658 43.8448 14.7912 44.0484 14.4503C44.2567 14.1094 44.3609 13.7377 44.3609 13.3352V12.5038C44.3609 12.3227 44.1228 12.1835 43.949 12.2344C43.7596 12.2912 43.5465 12.3409 43.3098 12.3835C43.073 12.4261 42.8387 12.464 42.6066 12.4972C42.3746 12.5303 42.1734 12.5587 42.003 12.5824C41.6194 12.6345 41.2762 12.7197 40.9731 12.8381C40.6701 12.9564 40.431 13.1222 40.2558 13.3352C40.0806 13.5436 39.993 13.8134 39.993 14.1449C39.993 14.6184 40.1658 14.9759 40.5115 15.2173C40.8571 15.4588 41.2975 15.5795 41.8325 15.5795Z" fill="white"/>
<path d="M49.5956 21.3395C48.8856 21.3395 48.3101 20.7639 48.3101 20.054V7.60369C48.3101 6.90549 48.8761 6.33949 49.5743 6.33949H49.9365C50.4346 6.33949 50.8385 6.74332 50.8385 7.24148V8.05129C50.8385 8.1022 50.8797 8.14347 50.9306 8.14347C50.9656 8.14347 50.9974 8.12369 51.0135 8.09274C51.1442 7.84246 51.3226 7.57764 51.5487 7.2983C51.7902 6.99527 52.1169 6.73722 52.5288 6.52415C52.9407 6.30634 53.4663 6.19744 54.1055 6.19744C54.9483 6.19744 55.7083 6.41288 56.3853 6.84375C57.0672 7.26989 57.6069 7.90199 58.0047 8.74006C58.4071 9.57339 58.6083 10.5961 58.6083 11.8082C58.6083 13.0062 58.4119 14.0241 58.0189 14.8622C57.6259 15.7003 57.0908 16.3395 56.4137 16.7798C55.7367 17.2202 54.9696 17.4403 54.1126 17.4403C53.4876 17.4403 52.9691 17.3362 52.5572 17.1278C52.1453 16.9195 51.8138 16.6686 51.5629 16.375C51.3277 16.09 51.1422 15.8202 51.0063 15.5655C50.9947 15.5436 50.9721 15.5298 50.9473 15.5298C50.9107 15.5298 50.8811 15.5595 50.8811 15.5961V20.054C50.8811 20.7639 50.3055 21.3395 49.5956 21.3395ZM50.8314 11.794C50.8314 12.4995 50.9308 13.1174 51.1297 13.6477C51.3333 14.178 51.6245 14.5923 52.0032 14.8906C52.3868 15.1842 52.8508 15.331 53.3953 15.331C53.9635 15.331 54.4393 15.1795 54.8228 14.8764C55.2064 14.5687 55.4952 14.1496 55.6893 13.6193C55.8882 13.0843 55.9876 12.4759 55.9876 11.794C55.9876 11.117 55.8905 10.5156 55.6964 9.99006C55.5023 9.46449 55.2135 9.05256 54.8299 8.75426C54.4464 8.45597 53.9682 8.30682 53.3953 8.30682C52.846 8.30682 52.3797 8.45123 51.9961 8.74006C51.6126 9.02888 51.3214 9.43371 51.1226 9.95455C50.9284 10.4754 50.8314 11.0885 50.8314 11.794Z" fill="white"/>
<path d="M60.8956 17.2486C60.1856 17.2486 59.6101 16.673 59.6101 15.9631V7.625C59.6101 6.91503 60.1856 6.33949 60.8956 6.33949C61.6055 6.33949 62.1811 6.91503 62.1811 7.625V15.9631C62.1811 16.673 61.6055 17.2486 60.8956 17.2486ZM60.9027 4.79119C60.4955 4.79119 60.1451 4.65625 59.8515 4.38636C59.558 4.11174 59.4112 3.78267 59.4112 3.39915C59.4112 3.01089 59.558 2.68182 59.8515 2.41193C60.1451 2.13731 60.4955 2 60.9027 2C61.3146 2 61.665 2.13731 61.9538 2.41193C62.2474 2.68182 62.3941 3.01089 62.3941 3.39915C62.3941 3.78267 62.2474 4.11174 61.9538 4.38636C61.665 4.65625 61.3146 4.79119 60.9027 4.79119Z" fill="white"/>
<path d="M64.9104 17.2486C64.2004 17.2486 63.6249 16.673 63.6249 15.9631V7.58594C63.6249 6.89754 64.183 6.33949 64.8713 6.33949H65.2087C65.7108 6.33949 66.1178 6.7465 66.1178 7.24858V8.09209C66.1178 8.12831 66.1472 8.15767 66.1834 8.15767C66.212 8.15767 66.2373 8.13906 66.2462 8.11189C66.447 7.50437 66.783 7.03431 67.2542 6.7017C67.7419 6.35606 68.2982 6.18324 68.9232 6.18324C69.0652 6.18324 69.2239 6.19034 69.399 6.20455C69.6607 6.21832 69.8465 6.44284 69.8465 6.70483V8.09055C69.8465 8.3492 69.5848 8.5507 69.328 8.51989C69.096 8.48674 68.8711 8.47017 68.6533 8.47017C68.1846 8.47017 67.7632 8.57197 67.3891 8.77557C67.0198 8.97443 66.7286 9.25142 66.5155 9.60653C66.3025 9.96165 66.1959 10.3712 66.1959 10.8352V15.9631C66.1959 16.673 65.6204 17.2486 64.9104 17.2486Z" fill="white"/>
<path d="M74.6639 17.4616C73.5985 17.4616 72.6753 17.2273 71.894 16.7585C71.1128 16.2898 70.5067 15.634 70.0758 14.7912C69.6497 13.9484 69.4366 12.9635 69.4366 11.8366C69.4366 10.7098 69.6497 9.72254 70.0758 8.875C70.5067 8.02746 71.1128 7.36932 71.894 6.90057C72.6753 6.43182 73.5985 6.19744 74.6639 6.19744C75.7292 6.19744 76.6525 6.43182 77.4338 6.90057C78.215 7.36932 78.8187 8.02746 79.2449 8.875C79.6757 9.72254 79.8912 10.7098 79.8912 11.8366C79.8912 12.9635 79.6757 13.9484 79.2449 14.7912C78.8187 15.634 78.215 16.2898 77.4338 16.7585C76.6525 17.2273 75.7292 17.4616 74.6639 17.4616ZM74.6781 15.402C75.2557 15.402 75.7387 15.2434 76.127 14.9261C76.5152 14.6042 76.804 14.1733 76.9934 13.6335C77.1876 13.0938 77.2846 12.4924 77.2846 11.8295C77.2846 11.1619 77.1876 10.5582 76.9934 10.0185C76.804 9.47396 76.5152 9.04072 76.127 8.71875C75.7387 8.39678 75.2557 8.2358 74.6781 8.2358C74.0862 8.2358 73.5938 8.39678 73.2008 8.71875C72.8126 9.04072 72.5214 9.47396 72.3272 10.0185C72.1378 10.5582 72.0432 11.1619 72.0432 11.8295C72.0432 12.4924 72.1378 13.0938 72.3272 13.6335C72.5214 14.1733 72.8126 14.6042 73.2008 14.9261C73.5938 15.2434 74.0862 15.402 74.6781 15.402Z" fill="white"/>
<path d="M11.6645 17.9844C11.2207 18.1066 10.6465 18.1577 10.1335 17.9949C10.1064 17.9686 10.0645 17.9341 10.0129 17.8916C9.72575 17.6552 9.1387 17.1715 9.1387 16.5C9.1387 15.89 7.83624 15.6521 6.70689 15.4458C5.98492 15.314 5.33369 15.1949 5.1387 15C5.09009 14.9514 5.03203 14.8885 4.96634 14.8157C4.91943 14.7637 4.86864 14.7065 4.81464 14.6458C4.16647 13.9166 3.05537 12.6666 2.6387 13.5C2.1387 14.5 1.1387 17.5 4.6387 18C7.92206 18.4691 9.00533 19.3781 9.53963 20.7272C9.60519 20.8927 9.75065 20.987 9.9285 20.9954C9.99388 20.9984 10.0638 21 10.1387 21C12.1524 21 13.2226 20.8007 14.6387 20.3678C16.063 19.9293 16.756 19.3057 17.5091 18.5311C18.2622 17.7509 18.6387 16.8481 18.6387 15.823C18.6387 15.0656 18.4341 14.4048 18.0248 13.8411C17.6155 13.2772 17.0589 12.7959 16.3549 12.3972C15.6591 11.9985 14.8692 11.6682 13.9852 11.4062C13.1093 11.1443 12.1966 10.9364 11.2471 10.7826L8.8896 10.3726C8.3739 10.2871 7.8623 10.1818 7.3548 10.0565C6.84729 9.93115 6.3848 9.77747 5.96733 9.59521C5.54987 9.40723 5.21834 9.17944 4.97278 8.91174C4.7354 8.64404 4.6167 8.328 4.6167 7.9635C4.62488 7.5249 4.80907 7.13477 5.16924 6.79309C5.5294 6.45129 6.04918 6.18079 6.72859 5.98145C6.8201 5.95459 6.91345 5.92627 7.0088 5.89734C7.62148 5.7113 8.31705 5.5 9.1387 5.5C10.4893 5.5 11.6195 5.89038 12.4626 6.30615C12.7278 6.43567 12.9572 6.58118 13.1509 6.74268C13.362 6.91882 13.6383 7.22229 13.9525 7.56726C14.7529 8.44629 15.799 9.59521 16.6387 9.59521C17.9175 9.59521 19.1026 8.76367 17.8834 6.46277C17.6909 6.09949 17.4311 5.75684 17.1039 5.43469C16.3344 4.67163 15.2744 4.07642 13.9238 3.64929C13.2224 3.4231 12.4607 3.2561 11.6387 3.14807V1C11.6387 0.447715 11.191 0 10.6387 0H8.6387C8.08642 0 7.6387 0.447715 7.6387 1V3.06335C6.50742 3.15625 5.46324 3.35156 4.5062 3.64929C3.11464 4.07642 2.01367 4.67725 1.20329 5.45178C0.401093 6.22644 0 7.12915 0 8.15991C0 9.41296 0.597549 10.4181 1.79265 11.1757C2.99594 11.9274 4.63307 12.4884 6.70404 12.8585L9.56491 13.3711C10.4653 13.5306 11.2512 13.7129 11.9224 13.9178C12.6018 14.1172 13.1298 14.3678 13.5063 14.6697C13.8828 14.9658 14.0752 15.3417 14.0834 15.7974C14.0752 16.2986 13.8583 16.7371 13.4326 17.1129C13.007 17.4832 12.4176 17.7736 11.6645 17.9844Z" fill="#3D24A0"/>
</svg>
